# xmcd CD database file
#
# Track frame offsets:
#	150
#	13266
#	22963
#	30035
#	42097
#	53761
#	65146
#	75311
#	84770
#	96236
#	105798
#	117308
#	129622
#	142847
#	155251
#	167128
#	179654
#	194114
#	204774
#	219848
#
# Disc length: 3087 seconds
#
# Revision: 0
# Processed by: cddbd v1.5.1PL2 Copyright (c) Steve Scherf et al.
# Submitted via: CDex 1.40Beta5
#
DISCID=f70c0d14
DTITLE=Various Artist - Kings of Country
DYEAR=1900
DGENRE=Country
TTITLE0=Ruby - K Rogers
TTITLE1=Six Days on the Road - D Dudley
TTITLE2=You're for me - B Owens
TTITLE3=Before the next Teardrop falls - F Fender
TTITLE4=Oh Lonesome me - D Gibson
TTITLE5=Send me the Pillow - H Locklin
TTITLE6=Kisses Sweeter then Wine - J Rogers
TTITLE7=Old Brush Arbors - G Jones
TTITLE8=Touch Me - W Nelson
TTITLE9=From a Jack to a King - N Miller
TTITLE10=Take this Job and Shove it - J Paycheck
TTITLE11=Wasted Days and Wasted Nights - F Fender
TTITLE12=A Fallen Star - F Husky
TTITLE13=Ruben James - K Rogers
TTITLE14=Luckenbach Texas - R Drusky
TTITLE15=Wolverton Mountain - C King
TTITLE16=Freightline Fever - Boxcar Willie
TTITLE17=Little Miss Blue Eyes - R Price
TTITLE18=Face of a Fighter - W Nelson
TTITLE19=Elvira - K Rogers
EXTD=ID3G:   2
EXTT0=
EXTT1=
EXTT2=
EXTT3=
EXTT4=
EXTT5=
EXTT6=
EXTT7=
EXTT8=
EXTT9=
EXTT10=
EXTT11=
EXTT12=
EXTT13=
EXTT14=
EXTT15=
EXTT16=
EXTT17=
EXTT18=
EXTT19=
PLAYORDER=
